<svg width="1824" height="534" viewBox="0 0 1824 534" fill="none" xmlns="http://www.w3.org/2000/svg">
<rect x="35" y="384.985" width="78.66" height="78.66" fill="black"/>
<rect x="192.32" y="227.665" width="78.66" height="235.98" fill="black"/>
<rect x="349.64" y="70.3455" width="78.66" height="393.3" fill="black"/>
<rect x="35" y="227.665" width="235.98" height="78.66" fill="black"/>
<rect x="35" y="70.3455" width="393.3" height="78.66" fill="black"/>
<path d="M749.382 340.939C749.382 357.391 745.335 371.753 737.239 384.026C729.144 396.299 717.393 405.831 701.987 412.62C686.841 419.148 668.301 422.412 646.366 422.412C636.704 422.412 627.173 421.759 617.772 420.454C608.632 419.148 599.754 417.32 591.137 414.97C582.78 412.359 574.816 409.225 567.243 405.569V350.34C580.561 356.085 594.27 361.438 608.371 366.4C622.733 371.1 636.965 373.45 651.066 373.45C660.728 373.45 668.431 372.145 674.176 369.533C680.182 366.922 684.491 363.397 687.102 358.957C689.975 354.518 691.411 349.426 691.411 343.681C691.411 336.631 688.93 330.625 683.969 325.663C679.268 320.702 672.871 316.132 664.776 311.954C656.681 307.515 647.41 302.814 636.965 297.853C630.437 294.719 623.386 291.063 615.814 286.885C608.241 282.446 600.929 277.093 593.879 270.826C587.089 264.297 581.475 256.464 577.036 247.324C572.596 238.184 570.377 227.217 570.377 214.421C570.377 197.709 574.163 183.477 581.736 171.727C589.57 159.714 600.537 150.575 614.638 144.308C629.001 138.041 645.844 134.907 665.167 134.907C679.791 134.907 693.631 136.604 706.687 139.999C720.005 143.394 733.845 148.225 748.207 154.492L729.014 200.712C716.218 195.489 704.729 191.442 694.545 188.569C684.36 185.697 673.915 184.261 663.209 184.261C655.897 184.261 649.63 185.436 644.407 187.786C639.185 190.136 635.137 193.4 632.265 197.579C629.653 201.757 628.348 206.718 628.348 212.463C628.348 218.991 630.306 224.606 634.223 229.306C638.14 233.745 644.016 238.054 651.85 242.232C659.684 246.41 669.476 251.371 681.227 257.116C695.589 263.906 707.732 270.956 717.655 278.268C727.839 285.58 735.673 294.197 741.156 304.12C746.64 314.043 749.382 326.316 749.382 340.939ZM961.204 418.495H800.217V138.824H961.204V187.394H859.363V248.891H954.154V297.461H859.363V369.533H961.204V418.495ZM1267.34 418.495H1192.14L1070.32 206.979H1068.75C1069.01 213.507 1069.27 220.166 1069.54 226.956C1069.8 233.484 1070.06 240.143 1070.32 246.932C1070.84 253.461 1071.23 260.119 1071.49 266.909C1071.76 273.437 1072.02 280.096 1072.28 286.885V418.495H1019.4V138.824H1094.21L1215.64 348.382H1216.81C1216.55 341.853 1216.29 335.456 1216.03 329.189C1215.77 322.66 1215.51 316.263 1215.25 309.995C1215.25 303.467 1215.12 297.069 1214.86 290.802C1214.59 284.274 1214.33 277.746 1214.07 271.217V138.824H1267.34V418.495ZM1445.75 418.495H1386.6V188.178H1310.62V138.824H1521.74V188.178H1445.75V418.495ZM1646.34 138.824C1671.67 138.824 1692.56 141.958 1709.01 148.225C1725.46 154.231 1737.74 163.501 1745.83 176.035C1753.93 188.308 1757.97 203.846 1757.97 222.647C1757.97 235.443 1755.49 246.671 1750.53 256.333C1745.83 265.734 1739.43 273.829 1731.34 280.618C1723.5 287.146 1715.02 292.5 1705.88 296.678L1788.13 418.495H1722.33L1655.74 311.171H1624.01V418.495H1564.87V138.824H1646.34ZM1642.03 187.394H1624.01V262.992H1643.21C1656.26 262.992 1666.84 261.556 1674.93 258.683C1683.03 255.811 1688.9 251.502 1692.56 245.757C1696.22 239.751 1698.04 232.57 1698.04 224.214C1698.04 215.335 1695.95 208.285 1691.78 203.062C1687.86 197.579 1681.72 193.662 1673.37 191.311C1665.27 188.7 1654.83 187.394 1642.03 187.394Z" fill="black"/>
</svg>
